<svg xmlns="http://www.w3.org/2000/svg" viewBox="0 0 120 120"><defs><linearGradient id="g" x1="0" y1="0" x2="0" y2="1"><stop offset="0" stop-color="#f6e3ad"/><stop offset=".42" stop-color="#e7c982"/><stop offset=".72" stop-color="#c6a04a"/><stop offset="1" stop-color="#8a6a2c"/></linearGradient></defs><circle cx="60" cy="60" r="59" fill="#F7F9FB"/><circle cx="60" cy="60" r="56.5" fill="none" stroke="#c6a04a" stroke-width="1.8"/><circle cx="60" cy="60" r="52" fill="none" stroke="#c6a04a" stroke-width="0.7" opacity=".5"/><g transform="translate(60,63) scale(0.335)"><path d="M-22,-58 C-80,-104 -118,-82 -114,-42 C-111,-10 -70,-13 -40,-33 C-30,-39 -22,-48 -22,-58 Z" fill="#a87f1c" opacity=".16"/><clipPath id="wl"><path d="M-22,-58 C-80,-104 -118,-82 -114,-42 C-111,-10 -70,-13 -40,-33 C-30,-39 -22,-48 -22,-58 Z"/></clipPath><g clip-path="url(#wl)"><line x1="-24" y1="-52" x2="-108" y2="-86" stroke="#a87f1c" stroke-width="1.1" opacity="0.85"/><line x1="-24" y1="-52" x2="-116" y2="-72" stroke="#a87f1c" stroke-width="1.1" opacity="0.85"/><line x1="-24" y1="-52" x2="-117" y2="-57" stroke="#a87f1c" stroke-width="1.1" opacity="0.85"/><line x1="-24" y1="-52" x2="-111" y2="-43" stroke="#a87f1c" stroke-width="1.1" opacity="0.85"/><line x1="-24" y1="-52" x2="-99" y2="-31" stroke="#a87f1c" stroke-width="1.1" opacity="0.85"/><line x1="-24" y1="-52" x2="-83" y2="-22" stroke="#a87f1c" stroke-width="1.1" opacity="0.85"/><line x1="-24" y1="-52" x2="-64" y2="-18" stroke="#a87f1c" stroke-width="1.1" opacity="0.85"/><path d="M-40,-58 Q-86,-72 -104,-44" fill="none" stroke="#a87f1c" stroke-width="0.9" opacity=".6"/></g><path d="M-22,-58 C-80,-104 -118,-82 -114,-42 C-111,-10 -70,-13 -40,-33 C-30,-39 -22,-48 -22,-58 Z" fill="none" stroke="#a87f1c" stroke-width="2"/><path d="M22,-58 C80,-104 118,-82 114,-42 C111,-10 70,-13 40,-33 C30,-39 22,-48 22,-58 Z" fill="#a87f1c" opacity=".16"/><clipPath id="wr"><path d="M22,-58 C80,-104 118,-82 114,-42 C111,-10 70,-13 40,-33 C30,-39 22,-48 22,-58 Z"/></clipPath><g clip-path="url(#wr)"><line x1="24" y1="-52" x2="108" y2="-86" stroke="#a87f1c" stroke-width="1.1" opacity="0.85"/><line x1="24" y1="-52" x2="116" y2="-72" stroke="#a87f1c" stroke-width="1.1" opacity="0.85"/><line x1="24" y1="-52" x2="117" y2="-57" stroke="#a87f1c" stroke-width="1.1" opacity="0.85"/><line x1="24" y1="-52" x2="111" y2="-43" stroke="#a87f1c" stroke-width="1.1" opacity="0.85"/><line x1="24" y1="-52" x2="99" y2="-31" stroke="#a87f1c" stroke-width="1.1" opacity="0.85"/><line x1="24" y1="-52" x2="83" y2="-22" stroke="#a87f1c" stroke-width="1.1" opacity="0.85"/><line x1="24" y1="-52" x2="64" y2="-18" stroke="#a87f1c" stroke-width="1.1" opacity="0.85"/><path d="M40,-58 Q86,-72 104,-44" fill="none" stroke="#a87f1c" stroke-width="0.9" opacity=".6"/></g><path d="M22,-58 C80,-104 118,-82 114,-42 C111,-10 70,-13 40,-33 C30,-39 22,-48 22,-58 Z" fill="none" stroke="#a87f1c" stroke-width="2"/><path d="M0,-116 C-8,-138 -20,-148 -34,-152" fill="none" stroke="#a87f1c" stroke-width="2.6" stroke-linecap="round"/><path d="M0,-116 C8,-138 20,-148 34,-152" fill="none" stroke="#a87f1c" stroke-width="2.6" stroke-linecap="round"/><circle cx="-34" cy="-152" r="4.4" fill="#a87f1c"/><circle cx="34" cy="-152" r="4.4" fill="#a87f1c"/><circle cx="0" cy="-102" r="15" fill="#12263A"/><clipPath id="bb"><path d="M0,-84 C34,-80 41,-38 34,8 C28,60 14,98 0,124 C-14,98 -28,60 -34,8 C-41,-38 -34,-80 0,-84 Z"/></clipPath><path d="M0,-84 C34,-80 41,-38 34,8 C28,60 14,98 0,124 C-14,98 -28,60 -34,8 C-41,-38 -34,-80 0,-84 Z" fill="#12263A"/><rect x="-50" y="-40" width="100" height="11" fill="#F7F9FB" clip-path="url(#bb)"/><rect x="-50" y="-6" width="100" height="11" fill="#F7F9FB" clip-path="url(#bb)"/><rect x="-50" y="28" width="100" height="11" fill="#F7F9FB" clip-path="url(#bb)"/></g></svg>